# This file uses centimeters as units for non-parametric coordinates.

mtllib right_antenna.mtl
g default
v -53.887501 81.734596 145.041000
v -54.049198 81.734596 145.854004
v -54.412498 85.985001 145.703003
v -54.280602 85.985001 145.041000
v -54.509899 81.734596 146.542999
v -54.787899 85.985001 146.264999
v -55.199402 81.734596 147.003998
v -55.349800 85.985001 146.641006
v -56.012600 81.734596 147.166000
v -56.012600 85.985001 146.772995
v -56.825901 81.734596 147.003998
v -56.675499 85.985001 146.641006
v -57.515400 81.734596 146.542999
v -57.237400 85.985001 146.264999
v -57.976002 81.734596 145.854004
v -57.612801 85.985001 145.703003
v -58.137798 81.734596 145.041000
v -57.744701 85.985001 145.041000
v -57.976002 81.734596 144.227005
v -57.612801 85.985001 144.378006
v -57.515400 81.734596 143.537994
v -57.237400 85.985001 143.815994
v -56.825901 81.734596 143.076996
v -56.675499 85.985001 143.440002
v -56.012600 81.734596 142.914993
v -56.012600 85.985001 143.309006
v -55.199402 81.734596 143.076996
v -55.349800 85.985001 143.440002
v -54.509899 81.734596 143.537994
v -54.787899 85.985001 143.815994
v -54.049198 81.734596 144.227005
v -54.412498 85.985001 144.378006
v -57.612801 90.927299 145.703003
v -57.237400 90.927299 146.264999
v -54.412498 90.927299 144.378006
v -54.787899 90.927299 143.815994
v -56.675499 90.927299 146.641006
v -55.349800 90.927299 143.440002
v -56.012600 90.927299 146.772995
v -56.012600 90.927299 143.309006
v -55.349800 90.927299 146.641006
v -56.675499 90.927299 143.440002
v -54.787899 90.927299 146.264999
v -57.237400 90.927299 143.815994
v -54.412498 90.927299 145.703003
v -57.612801 90.927299 144.378006
v -54.280602 90.927299 145.041000
v -57.744701 90.927299 145.041000
v -55.596199 91.706001 144.024002
v -56.012600 91.700897 143.942001
v -56.012600 91.833801 146.113998
v -55.596199 91.828697 146.031006
v -56.429100 91.706001 144.024002
v -55.243198 91.814301 145.796005
v -55.007301 91.792801 145.442993
v -54.924500 91.767403 145.028000
v -56.782101 91.720398 144.259995
v -55.007301 91.741898 144.612000
v -57.017899 91.741898 144.612000
v -57.100800 91.767403 145.028000
v -57.017899 91.792801 145.442993
v -56.782101 91.814301 145.796005
v -55.243198 91.720398 144.259995
v -56.429100 91.828697 146.031006
v -55.972401 271.001007 134.048996
v -55.981800 271.000000 134.033997
v -55.995998 271.000000 134.024994
v -56.012600 271.000000 134.022003
v -56.029301 271.000000 134.024994
v -55.969101 271.002014 134.065002
v -56.043400 271.000000 134.033997
v -56.012600 271.005005 134.108994
v -55.995998 271.005005 134.104996
v -56.052898 271.001007 134.048996
v -55.981800 271.003998 134.095993
v -56.056198 271.002014 134.065002
v -55.972401 271.002991 134.082001
v -56.029301 271.005005 134.104996
v -56.052898 271.002991 134.082001
v -56.043400 271.003998 134.095993
vt 0.062221 0.077027
vt 0.062221 0.077027
vt 0.062221 0.077027
vt 0.062221 0.077027
vt 0.062221 0.077027
vt 0.062221 0.077027
vt 0.062221 0.077027
vt 0.062221 0.077027
vt 0.062221 0.077027
vt 0.062221 0.077027
vt 0.062221 0.077027
vt 0.062221 0.077027
vt 0.062221 0.077027
vt 0.062221 0.077027
vt 0.062221 0.077027
vt 0.062221 0.077027
vt 0.062221 0.077027
vt 0.062221 0.077027
vt 0.062221 0.077027
vt 0.062221 0.077027
vt 0.062221 0.077027
vt 0.062221 0.077027
vt 0.062221 0.077027
vt 0.062221 0.077027
vt 0.062221 0.077027
vt 0.062221 0.077027
vt 0.062221 0.077027
vt 0.062221 0.077027
vt 0.062221 0.077027
vt 0.062221 0.077027
vt 0.062221 0.077027
vt 0.062221 0.077027
vt 0.062221 0.077027
vt 0.062221 0.077027
vt 0.062221 0.077027
vt 0.062221 0.077027
vt 0.062221 0.077027
vt 0.062221 0.077027
vt 0.062221 0.077027
vt 0.062221 0.077027
vt 0.062221 0.077027
vt 0.062221 0.077027
vt 0.062221 0.077027
vt 0.062221 0.077027
vt 0.062221 0.077027
vt 0.062221 0.077027
vt 0.062221 0.077027
vt 0.062221 0.077027
vt 0.062221 0.077027
vt 0.062221 0.077027
vt 0.062221 0.077027
vt 0.062221 0.077027
vt 0.062221 0.077027
vt 0.062221 0.077027
vt 0.062221 0.077027
vt 0.062221 0.077027
vt 0.062221 0.077027
vt 0.062221 0.077027
vt 0.062221 0.077027
vt 0.062221 0.077027
vt 0.062221 0.077027
vt 0.062221 0.077027
vt 0.062221 0.077027
vt 0.062221 0.077027
vt 0.062221 0.077027
vt 0.062221 0.077027
vt 0.062221 0.077027
vt 0.062221 0.077027
vt 0.062221 0.077027
vt 0.062221 0.077027
vt 0.062221 0.077027
vt 0.062221 0.077027
vt 0.062221 0.077027
vt 0.062221 0.077027
vt 0.062221 0.077027
vt 0.062221 0.077027
vt 0.062221 0.077027
vt 0.062221 0.077027
vt 0.062221 0.077027
vt 0.062221 0.077027
vt 0.062221 0.077027
vt 0.062221 0.077027
vt 0.062221 0.077027
vt 0.062221 0.077027
vt 0.062221 0.077027
vt 0.062221 0.077027
vt 0.062221 0.077027
vt 0.062221 0.077027
vt 0.062221 0.077027
vt 0.062221 0.077027
vt 0.062221 0.077027
vt 0.062221 0.077027
vt 0.062221 0.077027
vt 0.062221 0.077027
vt 0.062221 0.077027
vt 0.062221 0.077027
vt 0.062221 0.077027
vt 0.062221 0.077027
vt 0.062221 0.077027
vt 0.062221 0.077027
vt 0.062221 0.077027
vt 0.062221 0.077027
vt 0.062221 0.077027
vt 0.062221 0.077027
vt 0.062221 0.077027
vt 0.062221 0.077027
vt 0.062221 0.077027
vt 0.062221 0.077027
vt 0.062221 0.077027
vt 0.062221 0.077027
vt 0.062221 0.077027
vt 0.062221 0.077027
vt 0.062221 0.077027
vt 0.062221 0.077027
vt 0.062221 0.077027
vt 0.062221 0.077027
vt 0.062221 0.077027
vt 0.062221 0.077027
vt 0.062221 0.077027
vt 0.062221 0.077027
vt 0.062221 0.077027
vt 0.062221 0.077027
vt 0.062221 0.077027
vt 0.062221 0.077027
vt 0.062221 0.077027
vt 0.062221 0.077027
vt 0.062221 0.077027
vt 0.062221 0.077027
vt 0.062221 0.077027
vt 0.062221 0.077027
vt 0.062221 0.077027
vt 0.062221 0.077027
vt 0.062221 0.077027
vt 0.062221 0.077027
vt 0.062221 0.077027
vt 0.062221 0.077027
vt 0.062221 0.077027
vt 0.062221 0.077027
vt 0.062221 0.077027
vt 0.062221 0.077027
vt 0.062221 0.077027
vt 0.062221 0.077027
vt 0.062221 0.077027
vt 0.062221 0.077027
vt 0.062221 0.077027
vt 0.062221 0.077027
vt 0.062221 0.077027
vt 0.062221 0.077027
vt 0.062221 0.077027
vt 0.062221 0.077027
vt 0.062221 0.077027
vt 0.062221 0.077027
vt 0.062221 0.077027
vt 0.062221 0.077027
vt 0.062221 0.077027
vt 0.062221 0.077027
vt 0.062221 0.077027
vt 0.062221 0.077027
vt 0.062221 0.077027
vt 0.062221 0.077027
vt 0.062221 0.077027
vt 0.062221 0.077027
vt 0.062221 0.077027
vt 0.062221 0.077027
vt 0.062221 0.077027
vt 0.062221 0.077027
vt 0.062221 0.077027
vt 0.062221 0.077027
vt 0.062221 0.077027
vt 0.062221 0.077027
vt 0.062221 0.077027
vt 0.062221 0.077027
vt 0.062221 0.077027
vt 0.062221 0.077027
vt 0.062221 0.077027
vt 0.062221 0.077027
vt 0.062221 0.077027
vt 0.062221 0.077027
vt 0.062221 0.077027
vt 0.062221 0.077027
vt 0.062221 0.077027
vt 0.062221 0.077027
vt 0.062221 0.077027
vt 0.062221 0.077027
vt 0.062221 0.077027
vt 0.062221 0.077027
vt 0.062221 0.077027
vt 0.062221 0.077027
vt 0.062221 0.077027
vt 0.062221 0.077027
vt 0.062221 0.077027
vt 0.062221 0.077027
vt 0.062221 0.077027
vt 0.062221 0.077027
vt 0.062221 0.077027
vt 0.062221 0.077027
vt 0.062221 0.077027
vt 0.062221 0.077027
vt 0.062221 0.077027
vt 0.062221 0.077027
vt 0.062221 0.077027
vt 0.062221 0.077027
vt 0.062221 0.077027
vt 0.062221 0.077027
vt 0.062221 0.077027
vt 0.062221 0.077027
vt 0.062221 0.077027
vt 0.062221 0.077027
vt 0.062221 0.077027
vt 0.062221 0.077027
vt 0.062221 0.077027
vt 0.062221 0.077027
vt 0.062221 0.077027
vt 0.062221 0.077027
vt 0.062221 0.077027
vt 0.062221 0.077027
vt 0.062221 0.077027
vt 0.062221 0.077027
vt 0.062221 0.077027
vt 0.062221 0.077027
vt 0.062221 0.077027
vt 0.062221 0.077027
vt 0.062221 0.077027
vt 0.062221 0.077027
vt 0.062221 0.077027
vt 0.062221 0.077027
vt 0.062221 0.077027
vt 0.062221 0.077027
vt 0.062221 0.077027
vt 0.062221 0.077027
vt 0.062221 0.077027
vt 0.062221 0.077027
vt 0.062221 0.077027
vt 0.062221 0.077027
vt 0.062221 0.077027
vt 0.062221 0.077027
vt 0.062221 0.077027
vt 0.062221 0.077027
vt 0.062221 0.077027
vt 0.062221 0.077027
vt 0.062221 0.077027
vt 0.062221 0.077027
vt 0.062221 0.077027
vt 0.062221 0.077027
vt 0.062221 0.077027
vt 0.062221 0.077027
vt 0.062221 0.077027
vt 0.062221 0.077027
vt 0.062221 0.077027
vt 0.062221 0.077027
vt 0.062221 0.077027
vt 0.062221 0.077027
vt 0.062221 0.077027
vt 0.062221 0.077027
vt 0.062221 0.077027
vt 0.062221 0.077027
vt 0.062221 0.077027
vt 0.062221 0.077027
vt 0.062221 0.077027
vt 0.062221 0.077027
vt 0.062221 0.077027
vt 0.062221 0.077027
vt 0.062221 0.077027
vt 0.062221 0.077027
vt 0.062221 0.077027
vt 0.062221 0.077027
vt 0.062221 0.077027
vt 0.062221 0.077027
vt 0.062221 0.077027
vt 0.062221 0.077027
vt 0.062221 0.077027
vt 0.062221 0.077027
vt 0.062221 0.077027
vt 0.062221 0.077027
vt 0.062221 0.077027
vt 0.062221 0.077027
vt 0.062221 0.077027
vt 0.062221 0.077027
vt 0.062221 0.077027
vt 0.062221 0.077027
vt 0.062221 0.077027
vt 0.062221 0.077027
vt 0.062221 0.077027
vt 0.062221 0.077027
vt 0.062221 0.077027
vt 0.062221 0.077027
vt 0.062221 0.077027
vt 0.062221 0.077027
vt 0.062221 0.077027
vt 0.062221 0.077027
vt 0.062221 0.077027
vt 0.062221 0.077027
vt 0.062221 0.077027
vt 0.062221 0.077027
vt 0.062221 0.077027
vn 0.976748 0.090363 0.194418
vn 0.976748 0.090363 0.194418
vn 0.976748 0.090363 0.194418
vn 0.976748 0.090363 0.194418
vn 0.922896 0.046106 0.382278
vn 0.706354 0.046107 0.706356
vn 0.704099 0.092108 0.704103
vn 0.919953 0.092107 0.381054
vn 0.706354 0.046107 0.706356
vn 0.382281 0.046105 0.922895
vn 0.381058 0.092105 0.919952
vn 0.704099 0.092108 0.704103
vn 0.382281 0.046105 0.922895
vn -0.000001 0.046105 0.998937
vn -0.000001 0.092104 0.995749
vn 0.381058 0.092105 0.919952
vn -0.000001 0.046105 0.998937
vn -0.382284 0.046105 0.922894
vn -0.381061 0.092105 0.919951
vn -0.000001 0.092104 0.995749
vn -0.382284 0.046105 0.922894
vn -0.706358 0.046106 0.706351
vn -0.704106 0.092107 0.704096
vn -0.381061 0.092105 0.919951
vn -0.706358 0.046106 0.706351
vn -0.922897 0.046105 0.382277
vn -0.919953 0.092105 0.381055
vn -0.704106 0.092107 0.704096
vn -0.922897 0.046105 0.382277
vn -0.998937 0.046106 0.000001
vn -0.995749 0.092106 0.000002
vn -0.919953 0.092105 0.381055
vn -0.998937 0.046106 0.000001
vn -0.922899 0.046106 -0.382271
vn -0.919955 0.092106 -0.381051
vn -0.995749 0.092106 0.000002
vn -0.922899 0.046106 -0.382271
vn -0.706365 0.046106 -0.706345
vn -0.704111 0.092107 -0.704090
vn -0.919955 0.092106 -0.381051
vn -0.706365 0.046106 -0.706345
vn -0.382267 0.046106 -0.922901
vn -0.381048 0.092107 -0.919956
vn -0.704111 0.092107 -0.704090
vn -0.382267 0.046106 -0.922901
vn 0.000001 0.046106 -0.998937
vn 0.000001 0.092107 -0.995749
vn -0.381048 0.092107 -0.919956
vn 0.000001 0.046106 -0.998937
vn 0.382269 0.046106 -0.922900
vn 0.381051 0.092107 -0.919955
vn 0.000001 0.092107 -0.995749
vn 0.382269 0.046106 -0.922900
vn 0.706364 0.046107 -0.706345
vn 0.704110 0.092108 -0.704092
vn 0.381051 0.092107 -0.919955
vn 0.706364 0.046107 -0.706345
vn 0.922901 0.046107 -0.382268
vn 0.919956 0.092108 -0.381047
vn 0.704110 0.092108 -0.704092
vn 0.922901 0.046107 -0.382268
vn 0.998937 0.046106 0.000001
vn 0.995749 0.092107 0.000002
vn 0.919956 0.092108 -0.381047
vn -0.922897 0.046105 0.382277
vn -0.706358 0.046106 0.706351
vn -0.674682 0.313884 0.668042
vn -0.878439 0.317562 0.357071
vn 0.922901 0.046107 -0.382268
vn 0.706364 0.046107 -0.706345
vn 0.663322 0.332081 -0.670616
vn 0.870416 0.327396 -0.367678
vn -0.706358 0.046106 0.706351
vn -0.382284 0.046105 0.922894
vn -0.365957 0.311579 0.876923
vn -0.674682 0.313884 0.668042
vn 0.706364 0.046107 -0.706345
vn 0.382269 0.046106 -0.922900
vn 0.357879 0.335393 -0.871455
vn 0.663322 0.332081 -0.670616
vn -0.382284 0.046105 0.922894
vn -0.000001 0.046105 0.998937
vn -0.000005 0.310799 0.950476
vn -0.365957 0.311579 0.876923
vn 0.382269 0.046106 -0.922900
vn 0.000001 0.046106 -0.998937
vn 0.000002 0.336593 -0.941650
vn 0.357879 0.335393 -0.871455
vn -0.000001 0.046105 0.998937
vn 0.382281 0.046105 0.922895
vn 0.365955 0.311573 0.876926
vn -0.000005 0.310799 0.950476
vn 0.000001 0.046106 -0.998937
vn -0.382267 0.046106 -0.922901
vn -0.357880 0.335394 -0.871454
vn 0.000002 0.336593 -0.941650
vn 0.382281 0.046105 0.922895
vn 0.706354 0.046107 0.706356
vn 0.674687 0.313878 0.668040
vn 0.365955 0.311573 0.876926
vn -0.382267 0.046106 -0.922901
vn -0.706365 0.046106 -0.706345
vn -0.663321 0.332085 -0.670616
vn -0.357880 0.335394 -0.871454
vn 0.706354 0.046107 0.706356
vn 0.922896 0.046106 0.382278
vn 0.878441 0.317558 0.357069
vn 0.674687 0.313878 0.668040
vn -0.706365 0.046106 -0.706345
vn -0.922899 0.046106 -0.382271
vn -0.870414 0.327398 -0.367682
vn -0.663321 0.332085 -0.670616
vn 0.922896 0.046106 0.382278
vn 0.998937 0.046106 0.000001
vn 0.946620 0.322276 -0.006973
vn 0.878441 0.317558 0.357069
vn -0.922899 0.046106 -0.382271
vn -0.998937 0.046106 0.000001
vn -0.946620 0.322276 -0.006975
vn -0.870414 0.327398 -0.367682
vn -0.998937 0.046106 0.000001
vn -0.922897 0.046105 0.382277
vn -0.878439 0.317562 0.357071
vn -0.946620 0.322276 -0.006975
vn 0.998937 0.046106 0.000001
vn 0.922901 0.046107 -0.382268
vn 0.870416 0.327396 -0.367678
vn 0.946620 0.322276 -0.006973
vn 0.357879 0.335393 -0.871455
vn 0.000002 0.336593 -0.941650
vn 0.000000 0.310568 -0.950551
vn 0.361190 0.311550 -0.878908
vn -0.000005 0.310799 0.950476
vn 0.365955 0.311573 0.876926
vn 0.362440 0.340891 0.867428
vn -0.000020 0.342309 0.939588
vn 0.000002 0.336593 -0.941650
vn -0.357880 0.335394 -0.871454
vn -0.361201 0.311552 -0.878902
vn 0.000000 0.310568 -0.950551
vn 0.365955 0.311573 0.876926
vn 0.674687 0.313878 0.668040
vn 0.669473 0.336959 0.662016
vn 0.362440 0.340891 0.867428
vn 0.878441 0.317558 0.357069
vn 0.946620 0.322276 -0.006973
vn 0.945684 0.325008 -0.007160
vn 0.874281 0.331304 0.354783
vn 0.674687 0.313878 0.668040
vn 0.878441 0.317558 0.357069
vn 0.874281 0.331304 0.354783
vn 0.669473 0.336959 0.662016
vn -0.357880 0.335394 -0.871454
vn -0.663321 0.332085 -0.670616
vn -0.667774 0.314482 -0.674670
vn -0.361201 0.311552 -0.878902
vn 0.946620 0.322276 -0.006973
vn 0.870416 0.327396 -0.367678
vn 0.873101 0.319128 -0.368581
vn 0.945684 0.325008 -0.007160
vn -0.663321 0.332085 -0.670616
vn -0.870414 0.327398 -0.367682
vn -0.873092 0.319129 -0.368601
vn -0.667774 0.314482 -0.674670
vn -0.870414 0.327398 -0.367682
vn -0.946620 0.322276 -0.006975
vn -0.945684 0.325008 -0.007161
vn -0.873092 0.319129 -0.368601
vn -0.946620 0.322276 -0.006975
vn -0.878439 0.317562 0.357071
vn -0.874272 0.331308 0.354800
vn -0.945684 0.325008 -0.007161
vn -0.878439 0.317562 0.357071
vn -0.674682 0.313884 0.668042
vn -0.669457 0.336964 0.662029
vn -0.874272 0.331308 0.354800
vn 0.870416 0.327396 -0.367678
vn 0.663322 0.332081 -0.670616
vn 0.667778 0.314481 -0.674666
vn 0.873101 0.319128 -0.368581
vn -0.674682 0.313884 0.668042
vn -0.365957 0.311579 0.876923
vn -0.362451 0.340895 0.867421
vn -0.669457 0.336964 0.662029
vn 0.663322 0.332081 -0.670616
vn 0.357879 0.335393 -0.871455
vn 0.361190 0.311550 -0.878908
vn 0.667778 0.314481 -0.674666
vn -0.365957 0.311579 0.876923
vn -0.000005 0.310799 0.950476
vn -0.000020 0.342309 0.939588
vn -0.362451 0.340895 0.867421
vn 0.873101 0.319128 -0.368581
vn 0.667778 0.314481 -0.674666
vn 0.707050 -0.037364 -0.706176
vn 0.923895 -0.017550 -0.382243
vn 0.667778 0.314481 -0.674666
vn 0.361190 0.311550 -0.878908
vn 0.382589 -0.050597 -0.922532
vn 0.707050 -0.037364 -0.706176
vn 0.361190 0.311550 -0.878908
vn 0.000000 0.310568 -0.950551
vn -0.000002 -0.055241 -0.998473
vn 0.382589 -0.050597 -0.922532
vn 0.000000 0.310568 -0.950551
vn -0.361201 0.311552 -0.878902
vn -0.382607 -0.050596 -0.922525
vn -0.000002 -0.055241 -0.998473
vn 0.945684 0.325008 -0.007160
vn 0.873101 0.319128 -0.368581
vn 0.923895 -0.017550 -0.382243
vn 0.999983 0.005806 -0.000367
vn -0.361201 0.311552 -0.878902
vn -0.667774 0.314482 -0.674670
vn -0.707044 -0.037365 -0.706182
vn -0.382607 -0.050596 -0.922525
vn -0.000020 0.342309 0.939588
vn 0.362440 0.340891 0.867428
vn 0.382683 0.062208 0.921783
vn -0.000030 0.066854 0.997763
vn -0.667774 0.314482 -0.674670
vn -0.873092 0.319129 -0.368601
vn -0.923881 -0.017553 -0.382277
vn -0.707044 -0.037365 -0.706182
vn 0.362440 0.340891 0.867428
vn 0.669473 0.336959 0.662016
vn 0.707085 0.048975 0.705430
vn 0.382683 0.062208 0.921783
vn -0.873092 0.319129 -0.368601
vn -0.945684 0.325008 -0.007161
vn -0.999983 0.005805 -0.000369
vn -0.923881 -0.017553 -0.382277
vn 0.669473 0.336959 0.662016
vn 0.874281 0.331304 0.354783
vn 0.923885 0.029165 0.381556
vn 0.707085 0.048975 0.705430
vn -0.362451 0.340895 0.867421
vn -0.000020 0.342309 0.939588
vn -0.000030 0.066854 0.997763
vn -0.382701 0.062206 0.921776
vn -0.945684 0.325008 -0.007161
vn -0.874272 0.331308 0.354800
vn -0.923875 0.029166 0.381582
vn -0.999983 0.005805 -0.000369
vn 0.874281 0.331304 0.354783
vn 0.945684 0.325008 -0.007160
vn 0.999983 0.005806 -0.000367
vn 0.923885 0.029165 0.381556
vn -0.874272 0.331308 0.354800
vn -0.669457 0.336964 0.662029
vn -0.707065 0.048975 0.705450
vn -0.923875 0.029166 0.381582
vn -0.669457 0.336964 0.662029
vn -0.362451 0.340895 0.867421
vn -0.382701 0.062206 0.921776
vn -0.707065 0.048975 0.705450
vn 0.000008 0.998444 -0.055771
vn 0.000001 0.998236 -0.059363
vn -0.000000 0.998335 -0.057677
vn -0.000000 0.998335 -0.057677
vn 0.000001 0.998236 -0.059363
vn -0.000001 0.998135 -0.061050
vn 0.000002 0.998114 -0.061387
vn -0.000001 0.998135 -0.061050
vn 0.000001 0.998236 -0.059363
vn -0.000001 0.998135 -0.061050
vn 0.000002 0.998114 -0.061387
vn -0.000000 0.998146 -0.060869
vn 0.000002 0.998114 -0.061387
vn -0.000000 0.998096 -0.061679
vn -0.000000 0.998146 -0.060869
vn -0.000000 0.998146 -0.060869
vn -0.000000 0.998096 -0.061679
vn -0.000003 0.998116 -0.061347
vn 0.000001 0.998191 -0.060116
vn -0.000003 0.998116 -0.061347
vn -0.000000 0.998096 -0.061679
vn -0.000003 0.998116 -0.061347
vn 0.000001 0.998191 -0.060116
vn 0.000001 0.998057 -0.062303
vn 0.000006 0.998098 -0.061653
vn 0.000001 0.998057 -0.062303
vn 0.000001 0.998191 -0.060116
vn 0.000003 0.998157 -0.060684
vn 0.000001 0.998057 -0.062303
vn 0.000006 0.998098 -0.061653
vn 0.000003 0.998157 -0.060684
vn 0.000002 0.998156 -0.060707
vn 0.000001 0.998057 -0.062303
vn 0.000002 0.998156 -0.060707
vn 0.000003 0.998157 -0.060684
vn 0.000014 0.997951 -0.063977
vn 0.000003 0.998157 -0.060684
vn 0.000020 0.997657 -0.068413
vn 0.000014 0.997951 -0.063977
vn 0.000014 0.997951 -0.063977
vn 0.000020 0.997657 -0.068413
vn 0.000034 0.996689 -0.081312
s off
g Ozelot:LeftAnt
usemtl Ozelot:DarkGreen
f 4/1/1 3/2/2 2/3/3 1/4/4
f 3/5/5 6/6/6 5/7/7 2/8/8
f 6/9/9 8/10/10 7/11/11 5/12/12
f 8/13/13 10/14/14 9/15/15 7/16/16
f 10/17/17 12/18/18 11/19/19 9/20/20
f 12/21/21 14/22/22 13/23/23 11/24/24
f 14/25/25 16/26/26 15/27/27 13/28/28
f 16/29/29 18/30/30 17/31/31 15/32/32
f 18/33/33 20/34/34 19/35/35 17/36/36
f 20/37/37 22/38/38 21/39/39 19/40/40
f 22/41/41 24/42/42 23/43/43 21/44/44
f 24/45/45 26/46/46 25/47/47 23/48/48
f 26/49/49 28/50/50 27/51/51 25/52/52
f 28/53/53 30/54/54 29/55/55 27/56/56
f 30/57/57 32/58/58 31/59/59 29/60/60
f 32/61/61 4/1/62 1/62/63 31/63/64
f 16/64/65 14/65/66 34/66/67 33/67/68
f 32/68/69 30/69/70 36/70/71 35/71/72
f 14/72/73 12/73/74 37/74/75 34/75/76
f 30/76/77 28/77/78 38/78/79 36/79/80
f 12/80/81 10/81/82 39/82/83 37/83/84
f 28/84/85 26/85/86 40/86/87 38/87/88
f 10/88/89 8/89/90 41/90/91 39/91/92
f 26/92/93 24/93/94 42/94/95 40/95/96
f 8/96/97 6/97/98 43/98/99 41/99/100
f 24/100/101 22/101/102 44/102/103 42/103/104
f 6/104/105 3/105/106 45/106/107 43/107/108
f 22/108/109 20/109/110 46/110/111 44/111/112
f 3/112/113 4/1/114 47/113/115 45/114/116
f 20/115/117 18/116/118 48/117/119 46/118/120
f 18/119/121 16/120/122 33/121/123 48/122/124
f 4/1/125 32/123/126 35/124/127 47/125/128
f 38/126/129 40/127/130 50/128/131 49/129/132
f 39/130/133 41/131/134 52/132/135 51/133/136
f 40/134/137 42/135/138 53/136/139 50/137/140
f 41/138/141 43/139/142 54/140/143 52/141/144
f 45/142/145 47/143/146 56/144/147 55/145/148
f 43/146/149 45/147/150 55/148/151 54/149/152
f 42/150/153 44/151/154 57/152/155 53/153/156
f 47/154/157 35/155/158 58/156/159 56/157/160
f 44/158/161 46/159/162 59/160/163 57/161/164
f 46/162/165 48/163/166 60/164/167 59/165/168
f 48/166/169 33/167/170 61/168/171 60/169/172
f 33/170/173 34/171/174 62/172/175 61/173/176
f 35/174/177 36/175/178 63/176/179 58/177/180
f 34/178/181 37/179/182 64/180/183 62/181/184
f 36/182/185 38/183/186 49/184/187 63/185/188
f 37/186/189 39/187/190 51/188/191 64/189/192
f 58/190/193 63/191/194 66/192/195 65/193/196
f 63/194/197 49/195/198 67/196/199 66/197/200
f 49/198/201 50/199/202 68/200/203 67/201/204
f 50/202/205 53/203/206 69/204/207 68/205/208
f 56/206/209 58/207/210 65/208/211 70/209/212
f 53/210/213 57/211/214 71/212/215 69/213/216
f 51/214/217 52/215/218 73/216/219 72/217/220
f 57/218/221 59/219/222 74/220/223 71/221/224
f 52/222/225 54/223/226 75/224/227 73/225/228
f 59/226/229 60/227/230 76/228/231 74/229/232
f 54/230/233 55/231/234 77/232/235 75/233/236
f 64/234/237 51/235/238 72/236/239 78/237/240
f 60/238/241 61/239/242 79/240/243 76/241/244
f 55/242/245 56/243/246 70/244/247 77/245/248
f 61/246/249 62/247/250 80/248/251 79/249/252
f 62/250/253 64/251/254 78/252/255 80/253/256
f 68/254/257 69/255/258 67/256/259
f 67/257/260 69/258/261 66/259/262
f 71/260/263 66/261/264 69/262/265
f 66/263/266 71/264/267 65/265/268
f 71/266/269 74/267/270 65/268/271
f 65/269/272 74/270/273 70/271/274
f 76/272/275 70/273/276 74/274/277
f 70/275/278 76/276/279 77/277/280
f 79/278/281 77/279/282 76/280/283
f 80/281/284 77/282/285 79/283/286
f 80/284/287 75/285/288 77/286/289
f 75/287/290 80/288/291 73/289/292
f 80/290/293 78/291/294 73/292/295
f 73/293/296 78/294/297 72/295/298
